<svg id="visual" viewBox="0 0 960 540" width="960" height="540" xmlns="http://www.w3.org/2000/svg" xmlns:xlink="http://www.w3.org/1999/xlink" version="1.1"><rect x="0" y="0" width="960" height="540" fill="#3a3737"></rect><defs><linearGradient id="grad1_0" x1="43.8%" y1="100%" x2="100%" y2="0%"><stop offset="14.444444444444446%" stop-color="#3a3737" stop-opacity="1"></stop><stop offset="85.55555555555554%" stop-color="#3a3737" stop-opacity="1"></stop></linearGradient></defs><defs><linearGradient id="grad2_0" x1="0%" y1="100%" x2="56.3%" y2="0%"><stop offset="14.444444444444446%" stop-color="#3a3737" stop-opacity="1"></stop><stop offset="85.55555555555554%" stop-color="#3a3737" stop-opacity="1"></stop></linearGradient></defs><g transform="translate(960, 540)"><path d="M-264 0C-266.2 -17.9 -268.3 -35.8 -264.8 -52.7C-261.3 -69.5 -252.1 -85.4 -243.9 -101C-235.8 -116.7 -228.7 -132.1 -219.5 -146.7C-210.3 -161.2 -199 -175 -186 -186C-172.9 -197 -158.2 -205.2 -144.4 -216.2C-130.7 -227.1 -118 -240.8 -102.2 -246.7C-86.4 -252.6 -67.5 -250.8 -49.9 -251.1C-32.4 -251.4 -16.2 -253.7 0 -256L0 0Z" fill="#fa873c"></path></g><g transform="translate(0, 0)"><path d="M257 0C259.8 17.3 262.6 34.6 261.9 52.1C261.1 69.6 256.7 87.4 248.5 102.9C240.3 118.5 228.4 131.8 217 145C205.7 158.2 195 171.3 183.1 183.1C171.3 195 158.3 205.7 145 217C131.7 228.3 118 240.3 102.2 246.7C86.4 253.1 68.5 254 51.1 257C33.7 259.9 16.9 265 0 270L0 0Z" fill="#fa873c"></path></g></svg>